solid CATIA STL
  facet normal  -0.000000e+000  0.000000e+000 -9.999999e-001
    outer loop
      vertex -5.000000e+001  5.000000e+001  0.000000e+000
      vertex  7.200000e+001  5.000000e+001  0.000000e+000
      vertex -7.052268e+000  2.029606e+001  0.000000e+000
    endloop
  endfacet
  facet normal  -0.000000e+000  0.000000e+000 -1.000000e+000
    outer loop
      vertex -5.000000e+001  5.000000e+001  0.000000e+000
      vertex -7.052268e+000  2.029606e+001  0.000000e+000
      vertex -1.202067e+001  1.994172e+001  0.000000e+000
    endloop
  endfacet
  facet normal  -0.000000e+000  0.000000e+000 -1.000000e+000
    outer loop
      vertex -5.000000e+001  5.000000e+001  0.000000e+000
      vertex -1.202067e+001  1.994172e+001  0.000000e+000
      vertex -1.668798e+001  1.820197e+001  0.000000e+000
    endloop
  endfacet
  facet normal  -0.000000e+000  0.000000e+000 -1.000000e+000
    outer loop
      vertex -5.000000e+001  5.000000e+001  0.000000e+000
      vertex -1.668798e+001  1.820197e+001  0.000000e+000
      vertex -2.067609e+001  1.521776e+001  0.000000e+000
    endloop
  endfacet
  facet normal  -0.000000e+000  0.000000e+000 -1.000000e+000
    outer loop
      vertex -5.000000e+001  5.000000e+001  0.000000e+000
      vertex -2.067609e+001  1.521776e+001  0.000000e+000
      vertex -2.366191e+001  1.123085e+001  0.000000e+000
    endloop
  endfacet
  facet normal  -0.000000e+000  0.000000e+000 -1.000000e+000
    outer loop
      vertex -5.000000e+001  5.000000e+001  0.000000e+000
      vertex -2.366191e+001  1.123085e+001  0.000000e+000
      vertex -5.000000e+001 -5.000000e+001  0.000000e+000
    endloop
  endfacet
  facet normal  0.000000e+000  0.000000e+000 -1.000000e+000
    outer loop
      vertex -5.000000e+001 -5.000000e+001  0.000000e+000
      vertex -2.366191e+001  1.123085e+001  0.000000e+000
      vertex -2.540354e+001  6.564233e+000  0.000000e+000
    endloop
  endfacet
  facet normal  0.000000e+000  0.000000e+000 -9.999999e-001
    outer loop
      vertex -5.000000e+001 -5.000000e+001  0.000000e+000
      vertex -2.540354e+001  6.564233e+000  0.000000e+000
      vertex -2.575988e+001  1.595976e+000  0.000000e+000
    endloop
  endfacet
  facet normal  0.000000e+000  -0.000000e+000 -1.000000e+000
    outer loop
      vertex -5.000000e+001 -5.000000e+001  0.000000e+000
      vertex -2.575988e+001  1.595976e+000  0.000000e+000
      vertex -2.470206e+001 -3.271424e+000  0.000000e+000
    endloop
  endfacet
  facet normal  0.000000e+000  -0.000000e+000 -9.999999e-001
    outer loop
      vertex -5.000000e+001 -5.000000e+001  0.000000e+000
      vertex -2.470206e+001 -3.271424e+000  0.000000e+000
      vertex -2.231580e+001 -7.643640e+000  0.000000e+000
    endloop
  endfacet
  facet normal  0.000000e+000  -0.000000e+000 -1.000000e+000
    outer loop
      vertex -5.000000e+001 -5.000000e+001  0.000000e+000
      vertex -2.231580e+001 -7.643640e+000  0.000000e+000
      vertex -1.879439e+001 -1.116646e+001  0.000000e+000
    endloop
  endfacet
  facet normal  0.000000e+000  -0.000000e+000 -1.000000e+000
    outer loop
      vertex -5.000000e+001 -5.000000e+001  0.000000e+000
      vertex -1.879439e+001 -1.116646e+001  0.000000e+000
      vertex -1.442314e+001 -1.355449e+001  0.000000e+000
    endloop
  endfacet
  facet normal  0.000000e+000  -0.000000e+000 -1.000000e+000
    outer loop
      vertex -5.000000e+001 -5.000000e+001  0.000000e+000
      vertex -1.442314e+001 -1.355449e+001  0.000000e+000
      vertex -9.556162e+000 -1.461426e+001  0.000000e+000
    endloop
  endfacet
  facet normal  0.000000e+000  -0.000000e+000 -1.000000e+000
    outer loop
      vertex -5.000000e+001 -5.000000e+001  0.000000e+000
      vertex -9.556162e+000 -1.461426e+001  0.000000e+000
      vertex -4.587762e+000 -1.425992e+001  0.000000e+000
    endloop
  endfacet
  facet normal  0.000000e+000  -0.000000e+000 -1.000000e+000
    outer loop
      vertex -5.000000e+001 -5.000000e+001  0.000000e+000
      vertex -4.587762e+000 -1.425992e+001  0.000000e+000
      vertex  7.200000e+001 -5.000000e+001  0.000000e+000
    endloop
  endfacet
  facet normal  0.000000e+000  0.000000e+000 -1.000000e+000
    outer loop
      vertex  7.200000e+001 -5.000000e+001  0.000000e+000
      vertex -4.587762e+000 -1.425992e+001  0.000000e+000
      vertex  7.955279e-002 -1.252017e+001  0.000000e+000
    endloop
  endfacet
  facet normal  0.000000e+000  0.000000e+000 -1.000000e+000
    outer loop
      vertex  7.200000e+001 -5.000000e+001  0.000000e+000
      vertex  7.955279e-002 -1.252017e+001  0.000000e+000
      vertex  4.067665e+000 -9.535957e+000  0.000000e+000
    endloop
  endfacet
  facet normal  0.000000e+000  0.000000e+000 -9.999999e-001
    outer loop
      vertex  7.200000e+001 -5.000000e+001  0.000000e+000
      vertex  4.067665e+000 -9.535957e+000  0.000000e+000
      vertex  7.053480e+000 -5.549047e+000  0.000000e+000
    endloop
  endfacet
  facet normal  0.000000e+000  0.000000e+000 -1.000000e+000
    outer loop
      vertex  7.200000e+001 -5.000000e+001  0.000000e+000
      vertex  7.053480e+000 -5.549047e+000  0.000000e+000
      vertex  8.795107e+000 -8.824320e-001  0.000000e+000
    endloop
  endfacet
  facet normal  0.000000e+000  0.000000e+000 -1.000000e+000
    outer loop
      vertex  7.200000e+001 -5.000000e+001  0.000000e+000
      vertex  8.795107e+000 -8.824320e-001  0.000000e+000
      vertex  9.151448e+000  4.085824e+000  0.000000e+000
    endloop
  endfacet
  facet normal  0.000000e+000  0.000000e+000 -9.999999e-001
    outer loop
      vertex  7.200000e+001 -5.000000e+001  0.000000e+000
      vertex  9.151448e+000  4.085824e+000  0.000000e+000
      vertex  8.093636e+000  8.953225e+000  0.000000e+000
    endloop
  endfacet
  facet normal  0.000000e+000  0.000000e+000 -1.000000e+000
    outer loop
      vertex  7.200000e+001 -5.000000e+001  0.000000e+000
      vertex  8.093636e+000  8.953225e+000  0.000000e+000
      vertex  5.707366e+000  1.332544e+001  0.000000e+000
    endloop
  endfacet
  facet normal  0.000000e+000  0.000000e+000 -1.000000e+000
    outer loop
      vertex  7.200000e+001 -5.000000e+001  0.000000e+000
      vertex  5.707366e+000  1.332544e+001  0.000000e+000
      vertex  2.185963e+000  1.684826e+001  0.000000e+000
    endloop
  endfacet
  facet normal  0.000000e+000  0.000000e+000 -1.000000e+000
    outer loop
      vertex  7.200000e+001  5.000000e+001  0.000000e+000
      vertex  7.200000e+001 -5.000000e+001  0.000000e+000
      vertex  2.185963e+000  1.684826e+001  0.000000e+000
    endloop
  endfacet
  facet normal  0.000000e+000  0.000000e+000 -1.000000e+000
    outer loop
      vertex  7.200000e+001  5.000000e+001  0.000000e+000
      vertex  2.185963e+000  1.684826e+001  0.000000e+000
      vertex -2.185293e+000  1.923629e+001  0.000000e+000
    endloop
  endfacet
  facet normal  0.000000e+000  0.000000e+000 -1.000000e+000
    outer loop
      vertex  7.200000e+001  5.000000e+001  0.000000e+000
      vertex -2.185293e+000  1.923629e+001  0.000000e+000
      vertex -7.052268e+000  2.029606e+001  0.000000e+000
    endloop
  endfacet
  facet normal  0.000000e+000  0.000000e+000  1.000000e+000
    outer loop
      vertex -5.000000e+001  5.000000e+001  2.000000e+001
      vertex -5.000000e+001 -5.000000e+001  2.000000e+001
      vertex -2.366191e+001  1.123085e+001  2.000000e+001
    endloop
  endfacet
  facet normal  0.000000e+000  -0.000000e+000  1.000000e+000
    outer loop
      vertex -5.000000e+001  5.000000e+001  2.000000e+001
      vertex -2.366191e+001  1.123085e+001  2.000000e+001
      vertex -2.067609e+001  1.521776e+001  2.000000e+001
    endloop
  endfacet
  facet normal  0.000000e+000  -0.000000e+000  1.000000e+000
    outer loop
      vertex -5.000000e+001  5.000000e+001  2.000000e+001
      vertex -2.067609e+001  1.521776e+001  2.000000e+001
      vertex -1.668798e+001  1.820197e+001  2.000000e+001
    endloop
  endfacet
  facet normal  0.000000e+000  -0.000000e+000  1.000000e+000
    outer loop
      vertex -5.000000e+001  5.000000e+001  2.000000e+001
      vertex -1.668798e+001  1.820197e+001  2.000000e+001
      vertex -1.202067e+001  1.994172e+001  2.000000e+001
    endloop
  endfacet
  facet normal  0.000000e+000  -0.000000e+000  1.000000e+000
    outer loop
      vertex -5.000000e+001  5.000000e+001  2.000000e+001
      vertex -1.202067e+001  1.994172e+001  2.000000e+001
      vertex -7.052268e+000  2.029606e+001  2.000000e+001
    endloop
  endfacet
  facet normal  0.000000e+000  -0.000000e+000  1.000000e+000
    outer loop
      vertex -5.000000e+001  5.000000e+001  2.000000e+001
      vertex -7.052268e+000  2.029606e+001  2.000000e+001
      vertex  3.200000e+001  5.000000e+001  2.000000e+001
    endloop
  endfacet
  facet normal  0.000000e+000  0.000000e+000  1.000000e+000
    outer loop
      vertex -5.000000e+001 -5.000000e+001  2.000000e+001
      vertex  3.200000e+001 -5.000000e+001  2.000000e+001
      vertex -4.587762e+000 -1.425992e+001  2.000000e+001
    endloop
  endfacet
  facet normal  0.000000e+000  0.000000e+000  1.000000e+000
    outer loop
      vertex -5.000000e+001 -5.000000e+001  2.000000e+001
      vertex -4.587762e+000 -1.425992e+001  2.000000e+001
      vertex -9.556162e+000 -1.461426e+001  2.000000e+001
    endloop
  endfacet
  facet normal  0.000000e+000  0.000000e+000  1.000000e+000
    outer loop
      vertex -5.000000e+001 -5.000000e+001  2.000000e+001
      vertex -9.556162e+000 -1.461426e+001  2.000000e+001
      vertex -1.442314e+001 -1.355449e+001  2.000000e+001
    endloop
  endfacet
  facet normal  0.000000e+000  0.000000e+000  1.000000e+000
    outer loop
      vertex -5.000000e+001 -5.000000e+001  2.000000e+001
      vertex -1.442314e+001 -1.355449e+001  2.000000e+001
      vertex -1.879439e+001 -1.116646e+001  2.000000e+001
    endloop
  endfacet
  facet normal  0.000000e+000  0.000000e+000  1.000000e+000
    outer loop
      vertex -5.000000e+001 -5.000000e+001  2.000000e+001
      vertex -1.879439e+001 -1.116646e+001  2.000000e+001
      vertex -2.231580e+001 -7.643640e+000  2.000000e+001
    endloop
  endfacet
  facet normal  0.000000e+000  0.000000e+000  9.999999e-001
    outer loop
      vertex -5.000000e+001 -5.000000e+001  2.000000e+001
      vertex -2.231580e+001 -7.643640e+000  2.000000e+001
      vertex -2.470206e+001 -3.271424e+000  2.000000e+001
    endloop
  endfacet
  facet normal  0.000000e+000  0.000000e+000  1.000000e+000
    outer loop
      vertex -5.000000e+001 -5.000000e+001  2.000000e+001
      vertex -2.470206e+001 -3.271424e+000  2.000000e+001
      vertex -2.575988e+001  1.595976e+000  2.000000e+001
    endloop
  endfacet
  facet normal  0.000000e+000  -0.000000e+000  9.999999e-001
    outer loop
      vertex -5.000000e+001 -5.000000e+001  2.000000e+001
      vertex -2.575988e+001  1.595976e+000  2.000000e+001
      vertex -2.540354e+001  6.564233e+000  2.000000e+001
    endloop
  endfacet
  facet normal  0.000000e+000  -0.000000e+000  1.000000e+000
    outer loop
      vertex -5.000000e+001 -5.000000e+001  2.000000e+001
      vertex -2.540354e+001  6.564233e+000  2.000000e+001
      vertex -2.366191e+001  1.123085e+001  2.000000e+001
    endloop
  endfacet
  facet normal  0.000000e+000  0.000000e+000  1.000000e+000
    outer loop
      vertex  3.200000e+001 -5.000000e+001  2.000000e+001
      vertex  8.093636e+000  8.953225e+000  2.000000e+001
      vertex  9.151448e+000  4.085824e+000  2.000000e+001
    endloop
  endfacet
  facet normal  0.000000e+000  0.000000e+000  1.000000e+000
    outer loop
      vertex  3.200000e+001 -5.000000e+001  2.000000e+001
      vertex  9.151448e+000  4.085824e+000  2.000000e+001
      vertex  8.795107e+000 -8.824320e-001  2.000000e+001
    endloop
  endfacet
  facet normal  0.000000e+000  0.000000e+000  1.000000e+000
    outer loop
      vertex  3.200000e+001 -5.000000e+001  2.000000e+001
      vertex  8.795107e+000 -8.824320e-001  2.000000e+001
      vertex  7.053480e+000 -5.549047e+000  2.000000e+001
    endloop
  endfacet
  facet normal  0.000000e+000  0.000000e+000  1.000000e+000
    outer loop
      vertex  3.200000e+001 -5.000000e+001  2.000000e+001
      vertex  7.053480e+000 -5.549047e+000  2.000000e+001
      vertex  4.067665e+000 -9.535957e+000  2.000000e+001
    endloop
  endfacet
  facet normal  0.000000e+000  0.000000e+000  1.000000e+000
    outer loop
      vertex  3.200000e+001 -5.000000e+001  2.000000e+001
      vertex  4.067665e+000 -9.535957e+000  2.000000e+001
      vertex  7.955279e-002 -1.252017e+001  2.000000e+001
    endloop
  endfacet
  facet normal  0.000000e+000  0.000000e+000  1.000000e+000
    outer loop
      vertex  3.200000e+001 -5.000000e+001  2.000000e+001
      vertex  7.955279e-002 -1.252017e+001  2.000000e+001
      vertex -4.587762e+000 -1.425992e+001  2.000000e+001
    endloop
  endfacet
  facet normal  -0.000000e+000  0.000000e+000  1.000000e+000
    outer loop
      vertex  3.200000e+001  5.000000e+001  2.000000e+001
      vertex -7.052268e+000  2.029606e+001  2.000000e+001
      vertex -2.185293e+000  1.923629e+001  2.000000e+001
    endloop
  endfacet
  facet normal  -0.000000e+000  0.000000e+000  1.000000e+000
    outer loop
      vertex  3.200000e+001  5.000000e+001  2.000000e+001
      vertex -2.185293e+000  1.923629e+001  2.000000e+001
      vertex  2.185963e+000  1.684826e+001  2.000000e+001
    endloop
  endfacet
  facet normal  -0.000000e+000  0.000000e+000  1.000000e+000
    outer loop
      vertex  3.200000e+001  5.000000e+001  2.000000e+001
      vertex  2.185963e+000  1.684826e+001  2.000000e+001
      vertex  5.707366e+000  1.332544e+001  2.000000e+001
    endloop
  endfacet
  facet normal  -0.000000e+000  0.000000e+000  1.000000e+000
    outer loop
      vertex  3.200000e+001  5.000000e+001  2.000000e+001
      vertex  5.707366e+000  1.332544e+001  2.000000e+001
      vertex  8.093636e+000  8.953225e+000  2.000000e+001
    endloop
  endfacet
  facet normal  -0.000000e+000  0.000000e+000  1.000000e+000
    outer loop
      vertex  3.200000e+001  5.000000e+001  2.000000e+001
      vertex  8.093636e+000  8.953225e+000  2.000000e+001
      vertex  3.200000e+001 -5.000000e+001  2.000000e+001
    endloop
  endfacet
  facet normal  7.072490e-001  7.069646e-001  -0.000000e+000
    outer loop
      vertex -1.879439e+001 -1.116646e+001  2.000000e+001
      vertex -2.231580e+001 -7.643640e+000  0.000000e+000
      vertex -2.231580e+001 -7.643640e+000  2.000000e+001
    endloop
  endfacet
  facet normal  8.777753e-001  4.790723e-001  0.000000e+000
    outer loop
      vertex -2.231580e+001 -7.643640e+000  2.000000e+001
      vertex -2.231580e+001 -7.643640e+000  0.000000e+000
      vertex -2.470206e+001 -3.271424e+000  0.000000e+000
    endloop
  endfacet
  facet normal  8.777753e-001  4.790723e-001  -0.000000e+000
    outer loop
      vertex -2.231580e+001 -7.643640e+000  2.000000e+001
      vertex -2.470206e+001 -3.271424e+000  0.000000e+000
      vertex -2.470206e+001 -3.271424e+000  2.000000e+001
    endloop
  endfacet
  facet normal  9.771896e-001  2.123689e-001  0.000000e+000
    outer loop
      vertex -2.470206e+001 -3.271424e+000  2.000000e+001
      vertex -2.470206e+001 -3.271424e+000  0.000000e+000
      vertex -2.575988e+001  1.595976e+000  0.000000e+000
    endloop
  endfacet
  facet normal  9.771896e-001  2.123689e-001  -0.000000e+000
    outer loop
      vertex -2.470206e+001 -3.271424e+000  2.000000e+001
      vertex -2.575988e+001  1.595976e+000  0.000000e+000
      vertex -2.575988e+001  1.595976e+000  2.000000e+001
    endloop
  endfacet
  facet normal  9.974377e-001 -7.154004e-002  0.000000e+000
    outer loop
      vertex -2.575988e+001  1.595976e+000  2.000000e+001
      vertex -2.575988e+001  1.595976e+000  0.000000e+000
      vertex -2.540354e+001  6.564233e+000  0.000000e+000
    endloop
  endfacet
  facet normal  9.974377e-001 -7.154004e-002  0.000000e+000
    outer loop
      vertex -2.575988e+001  1.595976e+000  2.000000e+001
      vertex -2.540354e+001  6.564233e+000  0.000000e+000
      vertex -2.540354e+001  6.564233e+000  2.000000e+001
    endloop
  endfacet
  facet normal  9.368794e-001 -3.496527e-001  0.000000e+000
    outer loop
      vertex -2.540354e+001  6.564233e+000  2.000000e+001
      vertex -2.540354e+001  6.564233e+000  0.000000e+000
      vertex -2.366191e+001  1.123085e+001  0.000000e+000
    endloop
  endfacet
  facet normal  9.368794e-001 -3.496527e-001  0.000000e+000
    outer loop
      vertex -2.540354e+001  6.564233e+000  2.000000e+001
      vertex -2.366191e+001  1.123085e+001  0.000000e+000
      vertex -2.366191e+001  1.123085e+001  2.000000e+001
    endloop
  endfacet
  facet normal  7.072490e-001  7.069646e-001  0.000000e+000
    outer loop
      vertex -2.231580e+001 -7.643640e+000  0.000000e+000
      vertex -1.879439e+001 -1.116646e+001  2.000000e+001
      vertex -1.879439e+001 -1.116646e+001  0.000000e+000
    endloop
  endfacet
  facet normal  4.794256e-001  8.775826e-001  -0.000000e+000
    outer loop
      vertex -1.879439e+001 -1.116646e+001  0.000000e+000
      vertex -1.879439e+001 -1.116646e+001  2.000000e+001
      vertex -1.442314e+001 -1.355449e+001  2.000000e+001
    endloop
  endfacet
  facet normal  4.794256e-001  8.775826e-001  0.000000e+000
    outer loop
      vertex -1.879439e+001 -1.116646e+001  0.000000e+000
      vertex -1.442314e+001 -1.355449e+001  2.000000e+001
      vertex -1.442314e+001 -1.355449e+001  0.000000e+000
    endloop
  endfacet
  facet normal  2.127618e-001  9.771041e-001  -0.000000e+000
    outer loop
      vertex -1.442314e+001 -1.355449e+001  0.000000e+000
      vertex -1.442314e+001 -1.355449e+001  2.000000e+001
      vertex -9.556162e+000 -1.461426e+001  2.000000e+001
    endloop
  endfacet
  facet normal  2.127618e-001  9.771041e-001  0.000000e+000
    outer loop
      vertex -1.442314e+001 -1.355449e+001  0.000000e+000
      vertex -9.556162e+000 -1.461426e+001  2.000000e+001
      vertex -9.556162e+000 -1.461426e+001  0.000000e+000
    endloop
  endfacet
  facet normal -7.113854e-002  9.974664e-001  0.000000e+000
    outer loop
      vertex -9.556162e+000 -1.461426e+001  0.000000e+000
      vertex -9.556162e+000 -1.461426e+001  2.000000e+001
      vertex -4.587762e+000 -1.425992e+001  2.000000e+001
    endloop
  endfacet
  facet normal -7.113854e-002  9.974664e-001  0.000000e+000
    outer loop
      vertex -9.556162e+000 -1.461426e+001  0.000000e+000
      vertex -4.587762e+000 -1.425992e+001  2.000000e+001
      vertex -4.587762e+000 -1.425992e+001  0.000000e+000
    endloop
  endfacet
  facet normal -3.492757e-001  9.370199e-001  0.000000e+000
    outer loop
      vertex -4.587762e+000 -1.425992e+001  0.000000e+000
      vertex -4.587762e+000 -1.425992e+001  2.000000e+001
      vertex  7.955279e-002 -1.252017e+001  2.000000e+001
    endloop
  endfacet
  facet normal -3.492757e-001  9.370199e-001  0.000000e+000
    outer loop
      vertex -4.587762e+000 -1.425992e+001  0.000000e+000
      vertex  7.955279e-002 -1.252017e+001  2.000000e+001
      vertex  7.955279e-002 -1.252017e+001  0.000000e+000
    endloop
  endfacet
  facet normal -5.991165e-001  8.006618e-001  0.000000e+000
    outer loop
      vertex  7.955279e-002 -1.252017e+001  0.000000e+000
      vertex  7.955279e-002 -1.252017e+001  2.000000e+001
      vertex  4.067665e+000 -9.535957e+000  2.000000e+001
    endloop
  endfacet
  facet normal -5.991165e-001  8.006618e-001  0.000000e+000
    outer loop
      vertex  7.955279e-002 -1.252017e+001  0.000000e+000
      vertex  4.067665e+000 -9.535957e+000  2.000000e+001
      vertex  4.067665e+000 -9.535957e+000  0.000000e+000
    endloop
  endfacet
  facet normal -8.004207e-001  5.994386e-001  0.000000e+000
    outer loop
      vertex  4.067665e+000 -9.535957e+000  0.000000e+000
      vertex  4.067665e+000 -9.535957e+000  2.000000e+001
      vertex  7.053480e+000 -5.549047e+000  2.000000e+001
    endloop
  endfacet
  facet normal -8.004207e-001  5.994386e-001  0.000000e+000
    outer loop
      vertex  4.067665e+000 -9.535957e+000  0.000000e+000
      vertex  7.053480e+000 -5.549047e+000  2.000000e+001
      vertex  7.053480e+000 -5.549047e+000  0.000000e+000
    endloop
  endfacet
  facet normal -7.072491e-001 -7.069645e-001  0.000000e+000
    outer loop
      vertex  2.185963e+000  1.684826e+001  2.000000e+001
      vertex  5.707366e+000  1.332544e+001  0.000000e+000
      vertex  5.707366e+000  1.332544e+001  2.000000e+001
    endloop
  endfacet
  facet normal -8.777753e-001 -4.790724e-001  -0.000000e+000
    outer loop
      vertex  5.707366e+000  1.332544e+001  2.000000e+001
      vertex  5.707366e+000  1.332544e+001  0.000000e+000
      vertex  8.093636e+000  8.953225e+000  0.000000e+000
    endloop
  endfacet
  facet normal -8.777753e-001 -4.790724e-001  0.000000e+000
    outer loop
      vertex  5.707366e+000  1.332544e+001  2.000000e+001
      vertex  8.093636e+000  8.953225e+000  0.000000e+000
      vertex  8.093636e+000  8.953225e+000  2.000000e+001
    endloop
  endfacet
  facet normal -9.771897e-001 -2.123687e-001  -0.000000e+000
    outer loop
      vertex  8.093636e+000  8.953225e+000  2.000000e+001
      vertex  8.093636e+000  8.953225e+000  0.000000e+000
      vertex  9.151448e+000  4.085824e+000  0.000000e+000
    endloop
  endfacet
  facet normal -9.771897e-001 -2.123687e-001  0.000000e+000
    outer loop
      vertex  8.093636e+000  8.953225e+000  2.000000e+001
      vertex  9.151448e+000  4.085824e+000  0.000000e+000
      vertex  9.151448e+000  4.085824e+000  2.000000e+001
    endloop
  endfacet
  facet normal -9.974377e-001  7.153985e-002  0.000000e+000
    outer loop
      vertex  9.151448e+000  4.085824e+000  2.000000e+001
      vertex  9.151448e+000  4.085824e+000  0.000000e+000
      vertex  8.795107e+000 -8.824320e-001  0.000000e+000
    endloop
  endfacet
  facet normal -9.974377e-001  7.153985e-002  0.000000e+000
    outer loop
      vertex  9.151448e+000  4.085824e+000  2.000000e+001
      vertex  8.795107e+000 -8.824320e-001  0.000000e+000
      vertex  8.795107e+000 -8.824320e-001  2.000000e+001
    endloop
  endfacet
  facet normal -9.368794e-001  3.496527e-001  0.000000e+000
    outer loop
      vertex  8.795107e+000 -8.824320e-001  2.000000e+001
      vertex  8.795107e+000 -8.824320e-001  0.000000e+000
      vertex  7.053480e+000 -5.549047e+000  0.000000e+000
    endloop
  endfacet
  facet normal -9.368794e-001  3.496527e-001  0.000000e+000
    outer loop
      vertex  8.795107e+000 -8.824320e-001  2.000000e+001
      vertex  7.053480e+000 -5.549047e+000  0.000000e+000
      vertex  7.053480e+000 -5.549047e+000  2.000000e+001
    endloop
  endfacet
  facet normal -7.072491e-001 -7.069645e-001  -0.000000e+000
    outer loop
      vertex  5.707366e+000  1.332544e+001  0.000000e+000
      vertex  2.185963e+000  1.684826e+001  2.000000e+001
      vertex  2.185963e+000  1.684826e+001  0.000000e+000
    endloop
  endfacet
  facet normal -4.794254e-001 -8.775826e-001  0.000000e+000
    outer loop
      vertex  2.185963e+000  1.684826e+001  0.000000e+000
      vertex  2.185963e+000  1.684826e+001  2.000000e+001
      vertex -2.185293e+000  1.923629e+001  2.000000e+001
    endloop
  endfacet
  facet normal -4.794254e-001 -8.775826e-001  -0.000000e+000
    outer loop
      vertex  2.185963e+000  1.684826e+001  0.000000e+000
      vertex -2.185293e+000  1.923629e+001  2.000000e+001
      vertex -2.185293e+000  1.923629e+001  0.000000e+000
    endloop
  endfacet
  facet normal -2.127618e-001 -9.771041e-001  0.000000e+000
    outer loop
      vertex -2.185293e+000  1.923629e+001  0.000000e+000
      vertex -2.185293e+000  1.923629e+001  2.000000e+001
      vertex -7.052268e+000  2.029606e+001  2.000000e+001
    endloop
  endfacet
  facet normal -2.127618e-001 -9.771041e-001  -0.000000e+000
    outer loop
      vertex -2.185293e+000  1.923629e+001  0.000000e+000
      vertex -7.052268e+000  2.029606e+001  2.000000e+001
      vertex -7.052268e+000  2.029606e+001  0.000000e+000
    endloop
  endfacet
  facet normal  7.113835e-002 -9.974664e-001  0.000000e+000
    outer loop
      vertex -7.052268e+000  2.029606e+001  0.000000e+000
      vertex -7.052268e+000  2.029606e+001  2.000000e+001
      vertex -1.202067e+001  1.994172e+001  2.000000e+001
    endloop
  endfacet
  facet normal  7.113835e-002 -9.974664e-001  0.000000e+000
    outer loop
      vertex -7.052268e+000  2.029606e+001  0.000000e+000
      vertex -1.202067e+001  1.994172e+001  2.000000e+001
      vertex -1.202067e+001  1.994172e+001  0.000000e+000
    endloop
  endfacet
  facet normal  3.492758e-001 -9.370199e-001  0.000000e+000
    outer loop
      vertex -1.202067e+001  1.994172e+001  0.000000e+000
      vertex -1.202067e+001  1.994172e+001  2.000000e+001
      vertex -1.668798e+001  1.820197e+001  2.000000e+001
    endloop
  endfacet
  facet normal  3.492758e-001 -9.370199e-001  0.000000e+000
    outer loop
      vertex -1.202067e+001  1.994172e+001  0.000000e+000
      vertex -1.668798e+001  1.820197e+001  2.000000e+001
      vertex -1.668798e+001  1.820197e+001  0.000000e+000
    endloop
  endfacet
  facet normal  5.991166e-001 -8.006618e-001  0.000000e+000
    outer loop
      vertex -1.668798e+001  1.820197e+001  0.000000e+000
      vertex -1.668798e+001  1.820197e+001  2.000000e+001
      vertex -2.067609e+001  1.521776e+001  2.000000e+001
    endloop
  endfacet
  facet normal  5.991166e-001 -8.006618e-001  0.000000e+000
    outer loop
      vertex -1.668798e+001  1.820197e+001  0.000000e+000
      vertex -2.067609e+001  1.521776e+001  2.000000e+001
      vertex -2.067609e+001  1.521776e+001  0.000000e+000
    endloop
  endfacet
  facet normal  8.004207e-001 -5.994385e-001  0.000000e+000
    outer loop
      vertex -2.067609e+001  1.521776e+001  0.000000e+000
      vertex -2.067609e+001  1.521776e+001  2.000000e+001
      vertex -2.366191e+001  1.123085e+001  2.000000e+001
    endloop
  endfacet
  facet normal  8.004207e-001 -5.994385e-001  0.000000e+000
    outer loop
      vertex -2.067609e+001  1.521776e+001  0.000000e+000
      vertex -2.366191e+001  1.123085e+001  2.000000e+001
      vertex -2.366191e+001  1.123085e+001  0.000000e+000
    endloop
  endfacet
  facet normal -1.000000e+000  -0.000000e+000  0.000000e+000
    outer loop
      vertex  5.000000e+001 -5.000000e+001  1.110000e+002
      vertex  5.000000e+001  5.000000e+001  1.110000e+002
      vertex  5.000000e+001 -8.913692e+000  9.293558e+001
    endloop
  endfacet
  facet normal -1.000000e+000  -0.000000e+000  0.000000e+000
    outer loop
      vertex  5.000000e+001 -5.000000e+001  1.110000e+002
      vertex  5.000000e+001 -8.913692e+000  9.293558e+001
      vertex  5.000000e+001 -1.328495e+001  9.054755e+001
    endloop
  endfacet
  facet normal -1.000000e+000  -0.000000e+000  0.000000e+000
    outer loop
      vertex  5.000000e+001 -5.000000e+001  1.110000e+002
      vertex  5.000000e+001 -1.328495e+001  9.054755e+001
      vertex  5.000000e+001 -1.680635e+001  8.702473e+001
    endloop
  endfacet
  facet normal -1.000000e+000  -0.000000e+000  0.000000e+000
    outer loop
      vertex  5.000000e+001 -5.000000e+001  1.110000e+002
      vertex  5.000000e+001 -1.680635e+001  8.702473e+001
      vertex  5.000000e+001 -5.000000e+001  3.800000e+001
    endloop
  endfacet
  facet normal -1.000000e+000  0.000000e+000  0.000000e+000
    outer loop
      vertex  5.000000e+001 -5.000000e+001  3.800000e+001
      vertex  5.000000e+001 -1.680635e+001  8.702473e+001
      vertex  5.000000e+001 -1.919262e+001  8.265251e+001
    endloop
  endfacet
  facet normal -9.999999e-001  0.000000e+000  0.000000e+000
    outer loop
      vertex  5.000000e+001 -5.000000e+001  3.800000e+001
      vertex  5.000000e+001 -1.919262e+001  8.265251e+001
      vertex  5.000000e+001 -2.025043e+001  7.778511e+001
    endloop
  endfacet
  facet normal -1.000000e+000  0.000000e+000  -0.000000e+000
    outer loop
      vertex  5.000000e+001 -5.000000e+001  3.800000e+001
      vertex  5.000000e+001 -2.025043e+001  7.778511e+001
      vertex  5.000000e+001 -1.989409e+001  7.281685e+001
    endloop
  endfacet
  facet normal -1.000000e+000  0.000000e+000  -0.000000e+000
    outer loop
      vertex  5.000000e+001 -5.000000e+001  3.800000e+001
      vertex  5.000000e+001 -1.989409e+001  7.281685e+001
      vertex  5.000000e+001 -1.815247e+001  6.815024e+001
    endloop
  endfacet
  facet normal -1.000000e+000  0.000000e+000  -0.000000e+000
    outer loop
      vertex  5.000000e+001 -5.000000e+001  3.800000e+001
      vertex  5.000000e+001 -1.815247e+001  6.815024e+001
      vertex  5.000000e+001 -1.516665e+001  6.416333e+001
    endloop
  endfacet
  facet normal -1.000000e+000  0.000000e+000  -0.000000e+000
    outer loop
      vertex  5.000000e+001 -5.000000e+001  3.800000e+001
      vertex  5.000000e+001 -1.516665e+001  6.416333e+001
      vertex  5.000000e+001 -1.117854e+001  6.117912e+001
    endloop
  endfacet
  facet normal -1.000000e+000  0.000000e+000  -0.000000e+000
    outer loop
      vertex  5.000000e+001 -5.000000e+001  3.800000e+001
      vertex  5.000000e+001 -1.117854e+001  6.117912e+001
      vertex  5.000000e+001  5.000000e+001  3.800000e+001
    endloop
  endfacet
  facet normal -1.000000e+000  0.000000e+000  0.000000e+000
    outer loop
      vertex  5.000000e+001  5.000000e+001  3.800000e+001
      vertex  5.000000e+001 -1.117854e+001  6.117912e+001
      vertex  5.000000e+001 -6.511224e+000  5.943937e+001
    endloop
  endfacet
  facet normal -1.000000e+000  0.000000e+000  0.000000e+000
    outer loop
      vertex  5.000000e+001  5.000000e+001  3.800000e+001
      vertex  5.000000e+001 -6.511224e+000  5.943937e+001
      vertex  5.000000e+001 -1.542824e+000  5.908502e+001
    endloop
  endfacet
  facet normal -1.000000e+000  0.000000e+000  0.000000e+000
    outer loop
      vertex  5.000000e+001  5.000000e+001  3.800000e+001
      vertex  5.000000e+001 -1.542824e+000  5.908502e+001
      vertex  5.000000e+001  3.324150e+000  6.014479e+001
    endloop
  endfacet
  facet normal -1.000000e+000  0.000000e+000  0.000000e+000
    outer loop
      vertex  5.000000e+001  5.000000e+001  3.800000e+001
      vertex  5.000000e+001  3.324150e+000  6.014479e+001
      vertex  5.000000e+001  7.695406e+000  6.253282e+001
    endloop
  endfacet
  facet normal -9.999999e-001  0.000000e+000  0.000000e+000
    outer loop
      vertex  5.000000e+001  5.000000e+001  3.800000e+001
      vertex  5.000000e+001  7.695406e+000  6.253282e+001
      vertex  5.000000e+001  1.121681e+001  6.605564e+001
    endloop
  endfacet
  facet normal -1.000000e+000  0.000000e+000  0.000000e+000
    outer loop
      vertex  5.000000e+001  5.000000e+001  3.800000e+001
      vertex  5.000000e+001  1.121681e+001  6.605564e+001
      vertex  5.000000e+001  1.360308e+001  7.042786e+001
    endloop
  endfacet
  facet normal -1.000000e+000  0.000000e+000  0.000000e+000
    outer loop
      vertex  5.000000e+001  5.000000e+001  3.800000e+001
      vertex  5.000000e+001  1.360308e+001  7.042786e+001
      vertex  5.000000e+001  1.466089e+001  7.529526e+001
    endloop
  endfacet
  facet normal -1.000000e+000  0.000000e+000  0.000000e+000
    outer loop
      vertex  5.000000e+001  5.000000e+001  3.800000e+001
      vertex  5.000000e+001  1.466089e+001  7.529526e+001
      vertex  5.000000e+001  1.430455e+001  8.026352e+001
    endloop
  endfacet
  facet normal -1.000000e+000  0.000000e+000  0.000000e+000
    outer loop
      vertex  5.000000e+001  5.000000e+001  3.800000e+001
      vertex  5.000000e+001  1.430455e+001  8.026352e+001
      vertex  5.000000e+001  5.000000e+001  1.110000e+002
    endloop
  endfacet
  facet normal -1.000000e+000  0.000000e+000  0.000000e+000
    outer loop
      vertex  5.000000e+001  5.000000e+001  1.110000e+002
      vertex  5.000000e+001  1.430455e+001  8.026352e+001
      vertex  5.000000e+001  1.256292e+001  8.493013e+001
    endloop
  endfacet
  facet normal -1.000000e+000  0.000000e+000  0.000000e+000
    outer loop
      vertex  5.000000e+001  5.000000e+001  1.110000e+002
      vertex  5.000000e+001  1.256292e+001  8.493013e+001
      vertex  5.000000e+001  9.577107e+000  8.891704e+001
    endloop
  endfacet
  facet normal -1.000000e+000  0.000000e+000  0.000000e+000
    outer loop
      vertex  5.000000e+001  5.000000e+001  1.110000e+002
      vertex  5.000000e+001  9.577107e+000  8.891704e+001
      vertex  5.000000e+001  5.588996e+000  9.190125e+001
    endloop
  endfacet
  facet normal -1.000000e+000  0.000000e+000  0.000000e+000
    outer loop
      vertex  5.000000e+001  5.000000e+001  1.110000e+002
      vertex  5.000000e+001  5.588996e+000  9.190125e+001
      vertex  5.000000e+001  9.216810e-001  9.364100e+001
    endloop
  endfacet
  facet normal -1.000000e+000  0.000000e+000  0.000000e+000
    outer loop
      vertex  5.000000e+001  5.000000e+001  1.110000e+002
      vertex  5.000000e+001  9.216810e-001  9.364100e+001
      vertex  5.000000e+001 -4.046719e+000  9.399535e+001
    endloop
  endfacet
  facet normal -1.000000e+000  -0.000000e+000  0.000000e+000
    outer loop
      vertex  5.000000e+001  5.000000e+001  1.110000e+002
      vertex  5.000000e+001 -4.046719e+000  9.399535e+001
      vertex  5.000000e+001 -8.913692e+000  9.293558e+001
    endloop
  endfacet
  facet normal  1.000000e+000  0.000000e+000  0.000000e+000
    outer loop
      vertex  9.000000e+001 -5.000000e+001  1.110000e+002
      vertex  9.000000e+001 -5.000000e+001  1.800000e+001
      vertex  9.000000e+001 -1.919262e+001  8.265251e+001
    endloop
  endfacet
  facet normal  9.999999e-001  0.000000e+000  -0.000000e+000
    outer loop
      vertex  9.000000e+001 -5.000000e+001  1.110000e+002
      vertex  9.000000e+001 -1.919262e+001  8.265251e+001
      vertex  9.000000e+001 -1.680635e+001  8.702473e+001
    endloop
  endfacet
  facet normal  1.000000e+000  0.000000e+000  -0.000000e+000
    outer loop
      vertex  9.000000e+001 -5.000000e+001  1.110000e+002
      vertex  9.000000e+001 -1.680635e+001  8.702473e+001
      vertex  9.000000e+001 -1.328495e+001  9.054755e+001
    endloop
  endfacet
  facet normal  1.000000e+000  0.000000e+000  -0.000000e+000
    outer loop
      vertex  9.000000e+001 -5.000000e+001  1.110000e+002
      vertex  9.000000e+001 -1.328495e+001  9.054755e+001
      vertex  9.000000e+001 -8.913692e+000  9.293558e+001
    endloop
  endfacet
  facet normal  1.000000e+000  0.000000e+000  -0.000000e+000
    outer loop
      vertex  9.000000e+001 -5.000000e+001  1.110000e+002
      vertex  9.000000e+001 -8.913692e+000  9.293558e+001
      vertex  9.000000e+001 -4.046719e+000  9.399535e+001
    endloop
  endfacet
  facet normal  1.000000e+000  -0.000000e+000  -0.000000e+000
    outer loop
      vertex  9.000000e+001 -5.000000e+001  1.110000e+002
      vertex  9.000000e+001 -4.046719e+000  9.399535e+001
      vertex  9.000000e+001  9.216810e-001  9.364100e+001
    endloop
  endfacet
  facet normal  1.000000e+000  0.000000e+000  -0.000000e+000
    outer loop
      vertex  9.000000e+001 -5.000000e+001  1.110000e+002
      vertex  9.000000e+001  9.216810e-001  9.364100e+001
      vertex  9.000000e+001  5.000000e+001  1.110000e+002
    endloop
  endfacet
  facet normal  1.000000e+000  0.000000e+000  0.000000e+000
    outer loop
      vertex  9.000000e+001 -5.000000e+001  1.800000e+001
      vertex  9.000000e+001  5.000000e+001  1.800000e+001
      vertex  9.000000e+001 -1.542824e+000  5.908502e+001
    endloop
  endfacet
  facet normal  1.000000e+000  0.000000e+000  0.000000e+000
    outer loop
      vertex  9.000000e+001 -5.000000e+001  1.800000e+001
      vertex  9.000000e+001 -1.542824e+000  5.908502e+001
      vertex  9.000000e+001 -6.511224e+000  5.943937e+001
    endloop
  endfacet
  facet normal  1.000000e+000  0.000000e+000  0.000000e+000
    outer loop
      vertex  9.000000e+001 -5.000000e+001  1.800000e+001
      vertex  9.000000e+001 -6.511224e+000  5.943937e+001
      vertex  9.000000e+001 -1.117854e+001  6.117912e+001
    endloop
  endfacet
  facet normal  9.999999e-001  0.000000e+000  0.000000e+000
    outer loop
      vertex  9.000000e+001 -5.000000e+001  1.800000e+001
      vertex  9.000000e+001 -1.117854e+001  6.117912e+001
      vertex  9.000000e+001 -1.516665e+001  6.416333e+001
    endloop
  endfacet
  facet normal  9.999999e-001  0.000000e+000  0.000000e+000
    outer loop
      vertex  9.000000e+001 -5.000000e+001  1.800000e+001
      vertex  9.000000e+001 -1.516665e+001  6.416333e+001
      vertex  9.000000e+001 -1.815247e+001  6.815024e+001
    endloop
  endfacet
  facet normal  1.000000e+000  0.000000e+000  0.000000e+000
    outer loop
      vertex  9.000000e+001 -5.000000e+001  1.800000e+001
      vertex  9.000000e+001 -1.815247e+001  6.815024e+001
      vertex  9.000000e+001 -1.989409e+001  7.281685e+001
    endloop
  endfacet
  facet normal  1.000000e+000  0.000000e+000  0.000000e+000
    outer loop
      vertex  9.000000e+001 -5.000000e+001  1.800000e+001
      vertex  9.000000e+001 -1.989409e+001  7.281685e+001
      vertex  9.000000e+001 -2.025043e+001  7.778511e+001
    endloop
  endfacet
  facet normal  1.000000e+000  0.000000e+000  -0.000000e+000
    outer loop
      vertex  9.000000e+001 -5.000000e+001  1.800000e+001
      vertex  9.000000e+001 -2.025043e+001  7.778511e+001
      vertex  9.000000e+001 -1.919262e+001  8.265251e+001
    endloop
  endfacet
  facet normal  1.000000e+000  0.000000e+000  0.000000e+000
    outer loop
      vertex  9.000000e+001  5.000000e+001  1.800000e+001
      vertex  9.000000e+001  1.256292e+001  8.493013e+001
      vertex  9.000000e+001  1.430455e+001  8.026352e+001
    endloop
  endfacet
  facet normal  1.000000e+000  0.000000e+000  0.000000e+000
    outer loop
      vertex  9.000000e+001  5.000000e+001  1.800000e+001
      vertex  9.000000e+001  1.430455e+001  8.026352e+001
      vertex  9.000000e+001  1.466089e+001  7.529526e+001
    endloop
  endfacet
  facet normal  1.000000e+000  0.000000e+000  0.000000e+000
    outer loop
      vertex  9.000000e+001  5.000000e+001  1.800000e+001
      vertex  9.000000e+001  1.466089e+001  7.529526e+001
      vertex  9.000000e+001  1.360308e+001  7.042786e+001
    endloop
  endfacet
  facet normal  1.000000e+000  0.000000e+000  0.000000e+000
    outer loop
      vertex  9.000000e+001  5.000000e+001  1.800000e+001
      vertex  9.000000e+001  1.360308e+001  7.042786e+001
      vertex  9.000000e+001  1.121681e+001  6.605564e+001
    endloop
  endfacet
  facet normal  1.000000e+000  0.000000e+000  0.000000e+000
    outer loop
      vertex  9.000000e+001  5.000000e+001  1.800000e+001
      vertex  9.000000e+001  1.121681e+001  6.605564e+001
      vertex  9.000000e+001  7.695406e+000  6.253282e+001
    endloop
  endfacet
  facet normal  1.000000e+000  0.000000e+000  0.000000e+000
    outer loop
      vertex  9.000000e+001  5.000000e+001  1.800000e+001
      vertex  9.000000e+001  7.695406e+000  6.253282e+001
      vertex  9.000000e+001  3.324150e+000  6.014479e+001
    endloop
  endfacet
  facet normal  1.000000e+000  0.000000e+000  0.000000e+000
    outer loop
      vertex  9.000000e+001  5.000000e+001  1.800000e+001
      vertex  9.000000e+001  3.324150e+000  6.014479e+001
      vertex  9.000000e+001 -1.542824e+000  5.908502e+001
    endloop
  endfacet
  facet normal  1.000000e+000  -0.000000e+000  0.000000e+000
    outer loop
      vertex  9.000000e+001  5.000000e+001  1.110000e+002
      vertex  9.000000e+001  9.216810e-001  9.364100e+001
      vertex  9.000000e+001  5.588996e+000  9.190125e+001
    endloop
  endfacet
  facet normal  1.000000e+000  -0.000000e+000  0.000000e+000
    outer loop
      vertex  9.000000e+001  5.000000e+001  1.110000e+002
      vertex  9.000000e+001  5.588996e+000  9.190125e+001
      vertex  9.000000e+001  9.577107e+000  8.891704e+001
    endloop
  endfacet
  facet normal  1.000000e+000  -0.000000e+000  0.000000e+000
    outer loop
      vertex  9.000000e+001  5.000000e+001  1.110000e+002
      vertex  9.000000e+001  9.577107e+000  8.891704e+001
      vertex  9.000000e+001  1.256292e+001  8.493013e+001
    endloop
  endfacet
  facet normal  1.000000e+000  -0.000000e+000  0.000000e+000
    outer loop
      vertex  9.000000e+001  5.000000e+001  1.110000e+002
      vertex  9.000000e+001  1.256292e+001  8.493013e+001
      vertex  9.000000e+001  5.000000e+001  1.800000e+001
    endloop
  endfacet
  facet normal  0.000000e+000  7.072488e-001 -7.069647e-001
    outer loop
      vertex  5.000000e+001 -1.328495e+001  9.054755e+001
      vertex  9.000000e+001 -1.680635e+001  8.702473e+001
      vertex  5.000000e+001 -1.680635e+001  8.702473e+001
    endloop
  endfacet
  facet normal  0.000000e+000  8.777754e-001 -4.790724e-001
    outer loop
      vertex  5.000000e+001 -1.680635e+001  8.702473e+001
      vertex  9.000000e+001 -1.680635e+001  8.702473e+001
      vertex  9.000000e+001 -1.919262e+001  8.265251e+001
    endloop
  endfacet
  facet normal  0.000000e+000  8.777754e-001 -4.790724e-001
    outer loop
      vertex  5.000000e+001 -1.680635e+001  8.702473e+001
      vertex  9.000000e+001 -1.919262e+001  8.265251e+001
      vertex  5.000000e+001 -1.919262e+001  8.265251e+001
    endloop
  endfacet
  facet normal  0.000000e+000  9.771895e-001 -2.123689e-001
    outer loop
      vertex  5.000000e+001 -1.919262e+001  8.265251e+001
      vertex  9.000000e+001 -1.919262e+001  8.265251e+001
      vertex  9.000000e+001 -2.025043e+001  7.778511e+001
    endloop
  endfacet
  facet normal  0.000000e+000  9.771895e-001 -2.123689e-001
    outer loop
      vertex  5.000000e+001 -1.919262e+001  8.265251e+001
      vertex  9.000000e+001 -2.025043e+001  7.778511e+001
      vertex  5.000000e+001 -2.025043e+001  7.778511e+001
    endloop
  endfacet
  facet normal  -0.000000e+000  9.974377e-001  7.153996e-002
    outer loop
      vertex  5.000000e+001 -2.025043e+001  7.778511e+001
      vertex  9.000000e+001 -2.025043e+001  7.778511e+001
      vertex  9.000000e+001 -1.989409e+001  7.281685e+001
    endloop
  endfacet
  facet normal  0.000000e+000  9.974377e-001  7.153996e-002
    outer loop
      vertex  5.000000e+001 -2.025043e+001  7.778511e+001
      vertex  9.000000e+001 -1.989409e+001  7.281685e+001
      vertex  5.000000e+001 -1.989409e+001  7.281685e+001
    endloop
  endfacet
  facet normal  -0.000000e+000  9.368793e-001  3.496529e-001
    outer loop
      vertex  5.000000e+001 -1.989409e+001  7.281685e+001
      vertex  9.000000e+001 -1.989409e+001  7.281685e+001
      vertex  9.000000e+001 -1.815247e+001  6.815024e+001
    endloop
  endfacet
  facet normal  0.000000e+000  9.368793e-001  3.496529e-001
    outer loop
      vertex  5.000000e+001 -1.989409e+001  7.281685e+001
      vertex  9.000000e+001 -1.815247e+001  6.815024e+001
      vertex  5.000000e+001 -1.815247e+001  6.815024e+001
    endloop
  endfacet
  facet normal  0.000000e+000  7.072488e-001 -7.069647e-001
    outer loop
      vertex  9.000000e+001 -1.680635e+001  8.702473e+001
      vertex  5.000000e+001 -1.328495e+001  9.054755e+001
      vertex  9.000000e+001 -1.328495e+001  9.054755e+001
    endloop
  endfacet
  facet normal  0.000000e+000  4.794260e-001 -8.775823e-001
    outer loop
      vertex  9.000000e+001 -1.328495e+001  9.054755e+001
      vertex  5.000000e+001 -1.328495e+001  9.054755e+001
      vertex  5.000000e+001 -8.913692e+000  9.293558e+001
    endloop
  endfacet
  facet normal  0.000000e+000  4.794260e-001 -8.775823e-001
    outer loop
      vertex  9.000000e+001 -1.328495e+001  9.054755e+001
      vertex  5.000000e+001 -8.913692e+000  9.293558e+001
      vertex  9.000000e+001 -8.913692e+000  9.293558e+001
    endloop
  endfacet
  facet normal  0.000000e+000  2.127614e-001 -9.771041e-001
    outer loop
      vertex  9.000000e+001 -8.913692e+000  9.293558e+001
      vertex  5.000000e+001 -8.913692e+000  9.293558e+001
      vertex  5.000000e+001 -4.046719e+000  9.399535e+001
    endloop
  endfacet
  facet normal  0.000000e+000  2.127614e-001 -9.771041e-001
    outer loop
      vertex  9.000000e+001 -8.913692e+000  9.293558e+001
      vertex  5.000000e+001 -4.046719e+000  9.399535e+001
      vertex  9.000000e+001 -4.046719e+000  9.399535e+001
    endloop
  endfacet
  facet normal  -0.000000e+000 -7.113950e-002 -9.974664e-001
    outer loop
      vertex  9.000000e+001 -4.046719e+000  9.399535e+001
      vertex  5.000000e+001 -4.046719e+000  9.399535e+001
      vertex  5.000000e+001  9.216810e-001  9.364100e+001
    endloop
  endfacet
  facet normal  0.000000e+000 -7.113950e-002 -9.974664e-001
    outer loop
      vertex  9.000000e+001 -4.046719e+000  9.399535e+001
      vertex  5.000000e+001  9.216810e-001  9.364100e+001
      vertex  9.000000e+001  9.216810e-001  9.364100e+001
    endloop
  endfacet
  facet normal  -0.000000e+000 -3.492752e-001 -9.370202e-001
    outer loop
      vertex  9.000000e+001  9.216810e-001  9.364100e+001
      vertex  5.000000e+001  9.216810e-001  9.364100e+001
      vertex  5.000000e+001  5.588996e+000  9.190125e+001
    endloop
  endfacet
  facet normal  0.000000e+000 -3.492752e-001 -9.370202e-001
    outer loop
      vertex  9.000000e+001  9.216810e-001  9.364100e+001
      vertex  5.000000e+001  5.588996e+000  9.190125e+001
      vertex  9.000000e+001  5.588996e+000  9.190125e+001
    endloop
  endfacet
  facet normal  -0.000000e+000 -5.991170e-001 -8.006614e-001
    outer loop
      vertex  9.000000e+001  5.588996e+000  9.190125e+001
      vertex  5.000000e+001  5.588996e+000  9.190125e+001
      vertex  5.000000e+001  9.577107e+000  8.891704e+001
    endloop
  endfacet
  facet normal  0.000000e+000 -5.991170e-001 -8.006614e-001
    outer loop
      vertex  9.000000e+001  5.588996e+000  9.190125e+001
      vertex  5.000000e+001  9.577107e+000  8.891704e+001
      vertex  9.000000e+001  9.577107e+000  8.891704e+001
    endloop
  endfacet
  facet normal  -0.000000e+000 -8.004205e-001 -5.994390e-001
    outer loop
      vertex  9.000000e+001  9.577107e+000  8.891704e+001
      vertex  5.000000e+001  9.577107e+000  8.891704e+001
      vertex  5.000000e+001  1.256292e+001  8.493013e+001
    endloop
  endfacet
  facet normal  0.000000e+000 -8.004205e-001 -5.994390e-001
    outer loop
      vertex  9.000000e+001  9.577107e+000  8.891704e+001
      vertex  5.000000e+001  1.256292e+001  8.493013e+001
      vertex  9.000000e+001  1.256292e+001  8.493013e+001
    endloop
  endfacet
  facet normal  0.000000e+000 -7.072489e-001  7.069646e-001
    outer loop
      vertex  5.000000e+001  7.695406e+000  6.253282e+001
      vertex  9.000000e+001  1.121681e+001  6.605564e+001
      vertex  5.000000e+001  1.121681e+001  6.605564e+001
    endloop
  endfacet
  facet normal  0.000000e+000 -8.777753e-001  4.790726e-001
    outer loop
      vertex  5.000000e+001  1.121681e+001  6.605564e+001
      vertex  9.000000e+001  1.121681e+001  6.605564e+001
      vertex  9.000000e+001  1.360308e+001  7.042786e+001
    endloop
  endfacet
  facet normal  0.000000e+000 -8.777753e-001  4.790726e-001
    outer loop
      vertex  5.000000e+001  1.121681e+001  6.605564e+001
      vertex  9.000000e+001  1.360308e+001  7.042786e+001
      vertex  5.000000e+001  1.360308e+001  7.042786e+001
    endloop
  endfacet
  facet normal  0.000000e+000 -9.771897e-001  2.123687e-001
    outer loop
      vertex  5.000000e+001  1.360308e+001  7.042786e+001
      vertex  9.000000e+001  1.360308e+001  7.042786e+001
      vertex  9.000000e+001  1.466089e+001  7.529526e+001
    endloop
  endfacet
  facet normal  0.000000e+000 -9.771897e-001  2.123687e-001
    outer loop
      vertex  5.000000e+001  1.360308e+001  7.042786e+001
      vertex  9.000000e+001  1.466089e+001  7.529526e+001
      vertex  5.000000e+001  1.466089e+001  7.529526e+001
    endloop
  endfacet
  facet normal  0.000000e+000 -9.974378e-001 -7.153978e-002
    outer loop
      vertex  5.000000e+001  1.466089e+001  7.529526e+001
      vertex  9.000000e+001  1.466089e+001  7.529526e+001
      vertex  9.000000e+001  1.430455e+001  8.026352e+001
    endloop
  endfacet
  facet normal  -0.000000e+000 -9.974378e-001 -7.153978e-002
    outer loop
      vertex  5.000000e+001  1.466089e+001  7.529526e+001
      vertex  9.000000e+001  1.430455e+001  8.026352e+001
      vertex  5.000000e+001  1.430455e+001  8.026352e+001
    endloop
  endfacet
  facet normal  0.000000e+000 -9.368793e-001 -3.496529e-001
    outer loop
      vertex  5.000000e+001  1.430455e+001  8.026352e+001
      vertex  9.000000e+001  1.430455e+001  8.026352e+001
      vertex  9.000000e+001  1.256292e+001  8.493013e+001
    endloop
  endfacet
  facet normal  -0.000000e+000 -9.368793e-001 -3.496529e-001
    outer loop
      vertex  5.000000e+001  1.430455e+001  8.026352e+001
      vertex  9.000000e+001  1.256292e+001  8.493013e+001
      vertex  5.000000e+001  1.256292e+001  8.493013e+001
    endloop
  endfacet
  facet normal  0.000000e+000 -7.072489e-001  7.069646e-001
    outer loop
      vertex  9.000000e+001  1.121681e+001  6.605564e+001
      vertex  5.000000e+001  7.695406e+000  6.253282e+001
      vertex  9.000000e+001  7.695406e+000  6.253282e+001
    endloop
  endfacet
  facet normal  0.000000e+000 -4.794254e-001  8.775826e-001
    outer loop
      vertex  9.000000e+001  7.695406e+000  6.253282e+001
      vertex  5.000000e+001  7.695406e+000  6.253282e+001
      vertex  5.000000e+001  3.324150e+000  6.014479e+001
    endloop
  endfacet
  facet normal  0.000000e+000 -4.794254e-001  8.775826e-001
    outer loop
      vertex  9.000000e+001  7.695406e+000  6.253282e+001
      vertex  5.000000e+001  3.324150e+000  6.014479e+001
      vertex  9.000000e+001  3.324150e+000  6.014479e+001
    endloop
  endfacet
  facet normal  0.000000e+000 -2.127622e-001  9.771041e-001
    outer loop
      vertex  9.000000e+001  3.324150e+000  6.014479e+001
      vertex  5.000000e+001  3.324150e+000  6.014479e+001
      vertex  5.000000e+001 -1.542824e+000  5.908502e+001
    endloop
  endfacet
  facet normal  0.000000e+000 -2.127622e-001  9.771041e-001
    outer loop
      vertex  9.000000e+001  3.324150e+000  6.014479e+001
      vertex  5.000000e+001 -1.542824e+000  5.908502e+001
      vertex  9.000000e+001 -1.542824e+000  5.908502e+001
    endloop
  endfacet
  facet normal  0.000000e+000  7.113873e-002  9.974664e-001
    outer loop
      vertex  9.000000e+001 -1.542824e+000  5.908502e+001
      vertex  5.000000e+001 -1.542824e+000  5.908502e+001
      vertex  5.000000e+001 -6.511224e+000  5.943937e+001
    endloop
  endfacet
  facet normal  -0.000000e+000  7.113873e-002  9.974664e-001
    outer loop
      vertex  9.000000e+001 -1.542824e+000  5.908502e+001
      vertex  5.000000e+001 -6.511224e+000  5.943937e+001
      vertex  9.000000e+001 -6.511224e+000  5.943937e+001
    endloop
  endfacet
  facet normal  0.000000e+000  3.492759e-001  9.370199e-001
    outer loop
      vertex  9.000000e+001 -6.511224e+000  5.943937e+001
      vertex  5.000000e+001 -6.511224e+000  5.943937e+001
      vertex  5.000000e+001 -1.117854e+001  6.117912e+001
    endloop
  endfacet
  facet normal  -0.000000e+000  3.492759e-001  9.370199e-001
    outer loop
      vertex  9.000000e+001 -6.511224e+000  5.943937e+001
      vertex  5.000000e+001 -1.117854e+001  6.117912e+001
      vertex  9.000000e+001 -1.117854e+001  6.117912e+001
    endloop
  endfacet
  facet normal  0.000000e+000  5.991169e-001  8.006615e-001
    outer loop
      vertex  9.000000e+001 -1.117854e+001  6.117912e+001
      vertex  5.000000e+001 -1.117854e+001  6.117912e+001
      vertex  5.000000e+001 -1.516665e+001  6.416333e+001
    endloop
  endfacet
  facet normal  -0.000000e+000  5.991169e-001  8.006615e-001
    outer loop
      vertex  9.000000e+001 -1.117854e+001  6.117912e+001
      vertex  5.000000e+001 -1.516665e+001  6.416333e+001
      vertex  9.000000e+001 -1.516665e+001  6.416333e+001
    endloop
  endfacet
  facet normal  0.000000e+000  8.004205e-001  5.994389e-001
    outer loop
      vertex  9.000000e+001 -1.516665e+001  6.416333e+001
      vertex  5.000000e+001 -1.516665e+001  6.416333e+001
      vertex  5.000000e+001 -1.815247e+001  6.815024e+001
    endloop
  endfacet
  facet normal  -0.000000e+000  8.004205e-001  5.994389e-001
    outer loop
      vertex  9.000000e+001 -1.516665e+001  6.416333e+001
      vertex  5.000000e+001 -1.815247e+001  6.815024e+001
      vertex  9.000000e+001 -1.815247e+001  6.815024e+001
    endloop
  endfacet
  facet normal  0.000000e+000  1.000000e+000  0.000000e+000
    outer loop
      vertex  7.200000e+001  5.000000e+001  0.000000e+000
      vertex -5.000000e+001  5.000000e+001  0.000000e+000
      vertex -5.000000e+001  5.000000e+001  2.000000e+001
    endloop
  endfacet
  facet normal  -0.000000e+000  1.000000e+000  0.000000e+000
    outer loop
      vertex  7.200000e+001  5.000000e+001  0.000000e+000
      vertex -5.000000e+001  5.000000e+001  2.000000e+001
      vertex  3.200000e+001  5.000000e+001  2.000000e+001
    endloop
  endfacet
  facet normal  -0.000000e+000  9.999999e-001  0.000000e+000
    outer loop
      vertex  7.200000e+001  5.000000e+001  0.000000e+000
      vertex  3.200000e+001  5.000000e+001  2.000000e+001
      vertex  3.665874e+001  5.000000e+001  2.061333e+001
    endloop
  endfacet
  facet normal  -0.000000e+000  1.000000e+000  0.000000e+000
    outer loop
      vertex  7.200000e+001  5.000000e+001  0.000000e+000
      vertex  3.665874e+001  5.000000e+001  2.061333e+001
      vertex  4.100000e+001  5.000000e+001  2.241154e+001
    endloop
  endfacet
  facet normal  -0.000000e+000  1.000000e+000  0.000000e+000
    outer loop
      vertex  7.200000e+001  5.000000e+001  0.000000e+000
      vertex  4.100000e+001  5.000000e+001  2.241154e+001
      vertex  4.472792e+001  5.000000e+001  2.527208e+001
    endloop
  endfacet
  facet normal  -0.000000e+000  1.000000e+000  0.000000e+000
    outer loop
      vertex  7.200000e+001  5.000000e+001  0.000000e+000
      vertex  4.472792e+001  5.000000e+001  2.527208e+001
      vertex  4.758846e+001  5.000000e+001  2.900000e+001
    endloop
  endfacet
  facet normal  -0.000000e+000  1.000000e+000  0.000000e+000
    outer loop
      vertex  7.200000e+001  5.000000e+001  0.000000e+000
      vertex  4.758846e+001  5.000000e+001  2.900000e+001
      vertex  4.938667e+001  5.000000e+001  3.334126e+001
    endloop
  endfacet
  facet normal  -0.000000e+000  1.000000e+000  0.000000e+000
    outer loop
      vertex  7.200000e+001  5.000000e+001  0.000000e+000
      vertex  4.938667e+001  5.000000e+001  3.334126e+001
      vertex  5.000000e+001  5.000000e+001  3.800000e+001
    endloop
  endfacet
  facet normal  -0.000000e+000  9.999999e-001  0.000000e+000
    outer loop
      vertex  7.200000e+001  5.000000e+001  0.000000e+000
      vertex  5.000000e+001  5.000000e+001  3.800000e+001
      vertex  5.000000e+001  5.000000e+001  1.110000e+002
    endloop
  endfacet
  facet normal  0.000000e+000  1.000000e+000  0.000000e+000
    outer loop
      vertex  5.000000e+001  5.000000e+001  1.110000e+002
      vertex  9.000000e+001  5.000000e+001  1.110000e+002
      vertex  9.000000e+001  5.000000e+001  1.800000e+001
    endloop
  endfacet
  facet normal  0.000000e+000  1.000000e+000  0.000000e+000
    outer loop
      vertex  5.000000e+001  5.000000e+001  1.110000e+002
      vertex  9.000000e+001  5.000000e+001  1.800000e+001
      vertex  8.938667e+001  5.000000e+001  1.334126e+001
    endloop
  endfacet
  facet normal  0.000000e+000  1.000000e+000  0.000000e+000
    outer loop
      vertex  5.000000e+001  5.000000e+001  1.110000e+002
      vertex  8.938667e+001  5.000000e+001  1.334126e+001
      vertex  8.758846e+001  5.000000e+001  9.000000e+000
    endloop
  endfacet
  facet normal  0.000000e+000  9.999999e-001  0.000000e+000
    outer loop
      vertex  5.000000e+001  5.000000e+001  1.110000e+002
      vertex  8.758846e+001  5.000000e+001  9.000000e+000
      vertex  8.472792e+001  5.000000e+001  5.272078e+000
    endloop
  endfacet
  facet normal  0.000000e+000  9.999999e-001  0.000000e+000
    outer loop
      vertex  5.000000e+001  5.000000e+001  1.110000e+002
      vertex  8.472792e+001  5.000000e+001  5.272078e+000
      vertex  8.100000e+001  5.000000e+001  2.411543e+000
    endloop
  endfacet
  facet normal  0.000000e+000  1.000000e+000  0.000000e+000
    outer loop
      vertex  5.000000e+001  5.000000e+001  1.110000e+002
      vertex  8.100000e+001  5.000000e+001  2.411543e+000
      vertex  7.665874e+001  5.000000e+001  6.133351e-001
    endloop
  endfacet
  facet normal  0.000000e+000  1.000000e+000  0.000000e+000
    outer loop
      vertex  5.000000e+001  5.000000e+001  1.110000e+002
      vertex  7.665874e+001  5.000000e+001  6.133351e-001
      vertex  7.200000e+001  5.000000e+001  0.000000e+000
    endloop
  endfacet
  facet normal  -0.000000e+000 -1.000000e+000  0.000000e+000
    outer loop
      vertex  7.200000e+001 -5.000000e+001  0.000000e+000
      vertex  9.000000e+001 -5.000000e+001  1.110000e+002
      vertex  5.000000e+001 -5.000000e+001  1.110000e+002
    endloop
  endfacet
  facet normal  0.000000e+000 -9.999999e-001  0.000000e+000
    outer loop
      vertex  7.200000e+001 -5.000000e+001  0.000000e+000
      vertex  5.000000e+001 -5.000000e+001  1.110000e+002
      vertex  5.000000e+001 -5.000000e+001  3.800000e+001
    endloop
  endfacet
  facet normal  0.000000e+000 -1.000000e+000  -0.000000e+000
    outer loop
      vertex  7.200000e+001 -5.000000e+001  0.000000e+000
      vertex  5.000000e+001 -5.000000e+001  3.800000e+001
      vertex  4.938667e+001 -5.000000e+001  3.334126e+001
    endloop
  endfacet
  facet normal  0.000000e+000 -1.000000e+000  -0.000000e+000
    outer loop
      vertex  7.200000e+001 -5.000000e+001  0.000000e+000
      vertex  4.938667e+001 -5.000000e+001  3.334126e+001
      vertex  4.758846e+001 -5.000000e+001  2.900000e+001
    endloop
  endfacet
  facet normal  0.000000e+000 -1.000000e+000  -0.000000e+000
    outer loop
      vertex  7.200000e+001 -5.000000e+001  0.000000e+000
      vertex  4.758846e+001 -5.000000e+001  2.900000e+001
      vertex  4.472792e+001 -5.000000e+001  2.527208e+001
    endloop
  endfacet
  facet normal  0.000000e+000 -1.000000e+000  -0.000000e+000
    outer loop
      vertex  7.200000e+001 -5.000000e+001  0.000000e+000
      vertex  4.472792e+001 -5.000000e+001  2.527208e+001
      vertex  4.100000e+001 -5.000000e+001  2.241154e+001
    endloop
  endfacet
  facet normal  0.000000e+000 -1.000000e+000  -0.000000e+000
    outer loop
      vertex  7.200000e+001 -5.000000e+001  0.000000e+000
      vertex  4.100000e+001 -5.000000e+001  2.241154e+001
      vertex  3.665874e+001 -5.000000e+001  2.061333e+001
    endloop
  endfacet
  facet normal  0.000000e+000 -9.999999e-001  -0.000000e+000
    outer loop
      vertex  7.200000e+001 -5.000000e+001  0.000000e+000
      vertex  3.665874e+001 -5.000000e+001  2.061333e+001
      vertex  3.200000e+001 -5.000000e+001  2.000000e+001
    endloop
  endfacet
  facet normal  -0.000000e+000 -1.000000e+000  -0.000000e+000
    outer loop
      vertex  7.200000e+001 -5.000000e+001  0.000000e+000
      vertex  3.200000e+001 -5.000000e+001  2.000000e+001
      vertex -5.000000e+001 -5.000000e+001  2.000000e+001
    endloop
  endfacet
  facet normal  0.000000e+000 -1.000000e+000  0.000000e+000
    outer loop
      vertex  7.200000e+001 -5.000000e+001  0.000000e+000
      vertex -5.000000e+001 -5.000000e+001  2.000000e+001
      vertex -5.000000e+001 -5.000000e+001  0.000000e+000
    endloop
  endfacet
  facet normal  0.000000e+000 -9.999999e-001  0.000000e+000
    outer loop
      vertex  9.000000e+001 -5.000000e+001  1.110000e+002
      vertex  7.200000e+001 -5.000000e+001  0.000000e+000
      vertex  7.665874e+001 -5.000000e+001  6.133351e-001
    endloop
  endfacet
  facet normal  0.000000e+000 -1.000000e+000  0.000000e+000
    outer loop
      vertex  9.000000e+001 -5.000000e+001  1.110000e+002
      vertex  7.665874e+001 -5.000000e+001  6.133351e-001
      vertex  8.100000e+001 -5.000000e+001  2.411543e+000
    endloop
  endfacet
  facet normal  0.000000e+000 -1.000000e+000  0.000000e+000
    outer loop
      vertex  9.000000e+001 -5.000000e+001  1.110000e+002
      vertex  8.100000e+001 -5.000000e+001  2.411543e+000
      vertex  8.472792e+001 -5.000000e+001  5.272078e+000
    endloop
  endfacet
  facet normal  0.000000e+000 -1.000000e+000  0.000000e+000
    outer loop
      vertex  9.000000e+001 -5.000000e+001  1.110000e+002
      vertex  8.472792e+001 -5.000000e+001  5.272078e+000
      vertex  8.758846e+001 -5.000000e+001  9.000000e+000
    endloop
  endfacet
  facet normal  0.000000e+000 -1.000000e+000  0.000000e+000
    outer loop
      vertex  9.000000e+001 -5.000000e+001  1.110000e+002
      vertex  8.758846e+001 -5.000000e+001  9.000000e+000
      vertex  8.938667e+001 -5.000000e+001  1.334126e+001
    endloop
  endfacet
  facet normal  0.000000e+000 -1.000000e+000  0.000000e+000
    outer loop
      vertex  9.000000e+001 -5.000000e+001  1.110000e+002
      vertex  8.938667e+001 -5.000000e+001  1.334126e+001
      vertex  9.000000e+001 -5.000000e+001  1.800000e+001
    endloop
  endfacet
  facet normal  1.305261e-001  0.000000e+000 -9.914448e-001
    outer loop
      vertex  7.200000e+001 -5.000000e+001  0.000000e+000
      vertex  7.200000e+001  5.000000e+001  0.000000e+000
      vertex  7.665874e+001 -5.000000e+001  6.133351e-001
    endloop
  endfacet
  facet normal  1.305261e-001  0.000000e+000 -9.914448e-001
    outer loop
      vertex  7.665874e+001 -5.000000e+001  6.133351e-001
      vertex  7.200000e+001  5.000000e+001  0.000000e+000
      vertex  7.665874e+001  5.000000e+001  6.133351e-001
    endloop
  endfacet
  facet normal  3.826836e-001  0.000000e+000 -9.238795e-001
    outer loop
      vertex  7.665874e+001 -5.000000e+001  6.133351e-001
      vertex  7.665874e+001  5.000000e+001  6.133351e-001
      vertex  8.100000e+001 -5.000000e+001  2.411543e+000
    endloop
  endfacet
  facet normal  3.826836e-001  0.000000e+000 -9.238795e-001
    outer loop
      vertex  8.100000e+001 -5.000000e+001  2.411543e+000
      vertex  7.665874e+001  5.000000e+001  6.133351e-001
      vertex  8.100000e+001  5.000000e+001  2.411543e+000
    endloop
  endfacet
  facet normal  6.087617e-001  0.000000e+000 -7.933533e-001
    outer loop
      vertex  8.100000e+001 -5.000000e+001  2.411543e+000
      vertex  8.100000e+001  5.000000e+001  2.411543e+000
      vertex  8.472792e+001 -5.000000e+001  5.272078e+000
    endloop
  endfacet
  facet normal  6.087617e-001  0.000000e+000 -7.933533e-001
    outer loop
      vertex  8.472792e+001 -5.000000e+001  5.272078e+000
      vertex  8.100000e+001  5.000000e+001  2.411543e+000
      vertex  8.472792e+001  5.000000e+001  5.272078e+000
    endloop
  endfacet
  facet normal  7.933534e-001  0.000000e+000 -6.087614e-001
    outer loop
      vertex  8.472792e+001 -5.000000e+001  5.272078e+000
      vertex  8.472792e+001  5.000000e+001  5.272078e+000
      vertex  8.758846e+001 -5.000000e+001  9.000000e+000
    endloop
  endfacet
  facet normal  7.933534e-001  0.000000e+000 -6.087614e-001
    outer loop
      vertex  8.758846e+001 -5.000000e+001  9.000000e+000
      vertex  8.472792e+001  5.000000e+001  5.272078e+000
      vertex  8.758846e+001  5.000000e+001  9.000000e+000
    endloop
  endfacet
  facet normal  9.238793e-001  0.000000e+000 -3.826839e-001
    outer loop
      vertex  8.758846e+001 -5.000000e+001  9.000000e+000
      vertex  8.758846e+001  5.000000e+001  9.000000e+000
      vertex  8.938667e+001 -5.000000e+001  1.334126e+001
    endloop
  endfacet
  facet normal  9.238793e-001  0.000000e+000 -3.826839e-001
    outer loop
      vertex  8.938667e+001 -5.000000e+001  1.334126e+001
      vertex  8.758846e+001  5.000000e+001  9.000000e+000
      vertex  8.938667e+001  5.000000e+001  1.334126e+001
    endloop
  endfacet
  facet normal  9.914449e-001  0.000000e+000 -1.305261e-001
    outer loop
      vertex  8.938667e+001 -5.000000e+001  1.334126e+001
      vertex  8.938667e+001  5.000000e+001  1.334126e+001
      vertex  9.000000e+001 -5.000000e+001  1.800000e+001
    endloop
  endfacet
  facet normal  9.914449e-001  0.000000e+000 -1.305261e-001
    outer loop
      vertex  9.000000e+001 -5.000000e+001  1.800000e+001
      vertex  8.938667e+001  5.000000e+001  1.334126e+001
      vertex  9.000000e+001  5.000000e+001  1.800000e+001
    endloop
  endfacet
  facet normal -7.933531e-001  0.000000e+000  6.087618e-001
    outer loop
      vertex  4.472792e+001  5.000000e+001  2.527208e+001
      vertex  4.758846e+001 -5.000000e+001  2.900000e+001
      vertex  4.758846e+001  5.000000e+001  2.900000e+001
    endloop
  endfacet
  facet normal -9.238797e-001  0.000000e+000  3.826831e-001
    outer loop
      vertex  4.758846e+001  5.000000e+001  2.900000e+001
      vertex  4.758846e+001 -5.000000e+001  2.900000e+001
      vertex  4.938667e+001 -5.000000e+001  3.334126e+001
    endloop
  endfacet
  facet normal -9.238797e-001  0.000000e+000  3.826831e-001
    outer loop
      vertex  4.758846e+001  5.000000e+001  2.900000e+001
      vertex  4.938667e+001 -5.000000e+001  3.334126e+001
      vertex  4.938667e+001  5.000000e+001  3.334126e+001
    endloop
  endfacet
  facet normal -9.914449e-001  0.000000e+000  1.305262e-001
    outer loop
      vertex  4.938667e+001  5.000000e+001  3.334126e+001
      vertex  4.938667e+001 -5.000000e+001  3.334126e+001
      vertex  5.000000e+001 -5.000000e+001  3.800000e+001
    endloop
  endfacet
  facet normal -9.914449e-001  0.000000e+000  1.305262e-001
    outer loop
      vertex  4.938667e+001  5.000000e+001  3.334126e+001
      vertex  5.000000e+001 -5.000000e+001  3.800000e+001
      vertex  5.000000e+001  5.000000e+001  3.800000e+001
    endloop
  endfacet
  facet normal -7.933531e-001  0.000000e+000  6.087618e-001
    outer loop
      vertex  4.758846e+001 -5.000000e+001  2.900000e+001
      vertex  4.472792e+001  5.000000e+001  2.527208e+001
      vertex  4.472792e+001 -5.000000e+001  2.527208e+001
    endloop
  endfacet
  facet normal -6.087615e-001  0.000000e+000  7.933533e-001
    outer loop
      vertex  4.472792e+001 -5.000000e+001  2.527208e+001
      vertex  4.472792e+001  5.000000e+001  2.527208e+001
      vertex  4.100000e+001  5.000000e+001  2.241154e+001
    endloop
  endfacet
  facet normal -6.087615e-001  0.000000e+000  7.933533e-001
    outer loop
      vertex  4.472792e+001 -5.000000e+001  2.527208e+001
      vertex  4.100000e+001  5.000000e+001  2.241154e+001
      vertex  4.100000e+001 -5.000000e+001  2.241154e+001
    endloop
  endfacet
  facet normal -3.826834e-001  0.000000e+000  9.238796e-001
    outer loop
      vertex  4.100000e+001 -5.000000e+001  2.241154e+001
      vertex  4.100000e+001  5.000000e+001  2.241154e+001
      vertex  3.665874e+001  5.000000e+001  2.061333e+001
    endloop
  endfacet
  facet normal -3.826834e-001  0.000000e+000  9.238796e-001
    outer loop
      vertex  4.100000e+001 -5.000000e+001  2.241154e+001
      vertex  3.665874e+001  5.000000e+001  2.061333e+001
      vertex  3.665874e+001 -5.000000e+001  2.061333e+001
    endloop
  endfacet
  facet normal -1.305262e-001  0.000000e+000  9.914449e-001
    outer loop
      vertex  3.665874e+001 -5.000000e+001  2.061333e+001
      vertex  3.665874e+001  5.000000e+001  2.061333e+001
      vertex  3.200000e+001  5.000000e+001  2.000000e+001
    endloop
  endfacet
  facet normal -1.305262e-001  0.000000e+000  9.914449e-001
    outer loop
      vertex  3.665874e+001 -5.000000e+001  2.061333e+001
      vertex  3.200000e+001  5.000000e+001  2.000000e+001
      vertex  3.200000e+001 -5.000000e+001  2.000000e+001
    endloop
  endfacet
  facet normal  0.000000e+000  0.000000e+000  1.000000e+000
    outer loop
      vertex  5.000000e+001 -5.000000e+001  1.110000e+002
      vertex  9.000000e+001 -5.000000e+001  1.110000e+002
      vertex  5.000000e+001  5.000000e+001  1.110000e+002
    endloop
  endfacet
  facet normal  -0.000000e+000  0.000000e+000  1.000000e+000
    outer loop
      vertex  5.000000e+001  5.000000e+001  1.110000e+002
      vertex  9.000000e+001 -5.000000e+001  1.110000e+002
      vertex  9.000000e+001  5.000000e+001  1.110000e+002
    endloop
  endfacet
  facet normal -1.000000e+000  0.000000e+000  0.000000e+000
    outer loop
      vertex -5.000000e+001  5.000000e+001  2.000000e+001
      vertex -5.000000e+001  5.000000e+001  0.000000e+000
      vertex -5.000000e+001 -5.000000e+001  2.000000e+001
    endloop
  endfacet
  facet normal -1.000000e+000  0.000000e+000  0.000000e+000
    outer loop
      vertex -5.000000e+001 -5.000000e+001  2.000000e+001
      vertex -5.000000e+001  5.000000e+001  0.000000e+000
      vertex -5.000000e+001 -5.000000e+001  0.000000e+000
    endloop
  endfacet
endsolid CATIA STL
